<svg width="8" height="5" viewBox="0 0 8 5" fill="none" xmlns="http://www.w3.org/2000/svg">
<path d="M0.86099 2.3638L0.899717 2.40253C1.13208 2.63489 1.36445 2.82853 1.63554 3.02217C2.17773 3.44817 2.87482 3.79672 3.76556 3.99036C5.08229 4.26145 6.08921 3.9129 7.09613 3.52563C7.09613 3.52563 7.13485 3.52562 7.13485 3.4869C7.75449 3.2158 8.02559 2.51871 7.79322 1.89907C7.63831 1.51179 7.32849 1.2407 6.94122 1.12452C6.78631 1.08579 6.6314 1.08579 6.47649 1.08579C6.3603 1.08579 6.24412 1.12452 6.12794 1.16324C5.31466 1.47306 4.8112 1.62797 4.19156 1.51179C3.53319 1.39561 3.14592 1.08579 2.48755 0.504875C2.29391 0.349965 2.10027 0.233782 1.86791 0.195055C1.48063 0.1176 1.0159 0.233782 0.706079 0.58233C0.318804 1.08579 0.357531 1.89907 0.86099 2.3638Z" fill="#B9353D"/>
<path d="M0.861086 2.36377L0.899814 2.40249C1.13218 2.63486 1.36454 2.8285 1.63564 3.02214L5.97312 2.44122C6.01185 2.44122 6.01185 2.44122 6.05058 2.44122C6.39913 2.36377 6.63149 2.05395 6.59277 1.7054L6.51531 1.12448C6.39913 1.12448 6.28295 1.16321 6.16676 1.20194C5.35348 1.51176 4.85003 1.66667 4.23038 1.55049C3.57202 1.43431 3.18474 1.12448 2.52637 0.543572C2.33273 0.388661 2.1391 0.272479 1.90673 0.233751C1.51945 0.156296 1.05472 0.272479 0.744904 0.621027C0.3189 1.08576 0.357628 1.89904 0.861086 2.36377Z" fill="white"/>
<path d="M3.37831 3.02221C2.99104 3.06093 2.68122 3.25457 2.44885 3.56439C2.83613 3.75803 3.26213 3.91294 3.80432 4.02912C4.23032 4.10658 4.65632 4.14531 5.0436 4.10658C4.81123 3.37075 4.11414 2.90602 3.37831 3.02221Z" fill="#E74A53"/>
</svg>
