<svg width="124" height="35" viewBox="0 0 124 35" fill="none" xmlns="http://www.w3.org/2000/svg">
<path fill-rule="evenodd" clip-rule="evenodd" d="M66.186 3.87694C67.2946 1.67818 69.3253 0.310843 71.8751 0.0453892C73.3869 -0.114885 75.0045 0.155577 76.2542 0.77664C78.1136 1.70322 79.4288 3.39612 79.9781 5.57485C80.2099 6.49142 80.3107 7.96894 80.2149 9.07083C80.099 10.333 79.8572 11.2696 79.3835 12.2362C78.3857 14.2647 76.5565 15.627 74.2486 16.0528C73.528 16.188 71.8399 16.173 71.1596 16.0277C68.8315 15.5269 67.1585 14.2597 66.1507 12.2212C65.5611 11.0342 65.294 9.74198 65.294 8.07913C65.294 6.40126 65.5712 5.09403 66.186 3.87694ZM76.0173 5.12909C75.5537 4.20751 74.8734 3.59646 73.9916 3.31598C73.4322 3.13568 72.3639 3.10062 71.8046 3.24086C70.7665 3.5013 69.9401 4.21753 69.4513 5.26432C69.0079 6.22095 68.8265 7.66342 68.9776 9.06582C69.2044 11.1594 70.2374 12.5618 71.8248 12.9425C72.2984 13.0576 73.271 13.0576 73.7094 12.9475C74.8432 12.657 75.7351 11.8406 76.1887 10.6736C76.8135 9.07584 76.7329 6.55152 76.0173 5.12909ZM44.8855 15.9676V8.10418V0.240725H48.5086C51.8748 0.240725 52.1721 0.245733 52.7062 0.340896C54.5102 0.646418 55.8355 1.59304 56.5209 3.05554C56.8383 3.72669 56.9341 4.15742 56.9643 5.04895C56.9895 5.73512 56.9794 5.88037 56.8837 6.25101C56.4554 7.9439 55.12 9.13594 53.2958 9.4615C53.1043 9.49656 52.9481 9.53663 52.9481 9.55165C52.9481 9.56668 52.9783 9.68187 53.0187 9.80709L53.0842 10.0325L54.4851 10.0575L55.8859 10.0826L56.9038 13.0276L57.9218 15.9676L55.9565 15.9576L53.9912 15.9426L53.0741 13.2129L52.157 10.4832L50.3126 10.4682L48.4633 10.4582V13.2129V15.9676H46.6744H44.8855ZM53.2253 4.6683C53.0086 3.92202 52.4291 3.40614 51.5623 3.19578C51.4112 3.16072 50.751 3.12566 49.8894 3.11063L48.4633 3.08559V5.27433V7.46308L49.9649 7.44304C51.3507 7.42301 51.4868 7.41299 51.8143 7.30781C52.4593 7.09745 52.8927 6.74184 53.1396 6.20593C53.316 5.83529 53.3563 5.10905 53.2253 4.6683ZM59.6502 8.10418V15.9676H61.4391H63.228V8.10418V0.240725H61.4391H59.6502V8.10418ZM80.613 3.14569V1.69321V0.240725H86.4836H92.3542V1.69321V3.14569H90.3134H88.2725L88.2624 9.54163L88.2473 15.9426L86.4937 15.9576L84.7451 15.9676L84.7552 10.1727L84.7703 4.37279L85.0727 4.21252C85.4002 4.03722 86.1561 3.78679 86.6247 3.69664C86.7809 3.66658 86.912 3.63152 86.912 3.62652C86.912 3.62151 86.8767 3.51132 86.8313 3.3811L86.7507 3.14569H83.6819H80.613Z" fill="white"/>
<path fill-rule="evenodd" clip-rule="evenodd" d="M45.5532 21.6464C46.6487 19.9247 48.3703 18.8212 50.531 18.4686C51.1873 18.3613 52.6766 18.3971 53.3783 18.5402C54.383 18.7445 55.4886 19.2299 56.2156 19.7816C57.4474 20.7217 58.3309 22.1573 58.5378 23.5674L58.5732 23.8075H56.7658H54.9534L54.8373 23.501C54.4839 22.5865 53.7519 21.9427 52.7574 21.6771C52.2778 21.5493 51.2933 21.5647 50.7683 21.7077C49.2487 22.1215 48.2188 23.5061 47.9563 25.4832C47.8705 26.1423 47.926 27.8027 48.0522 28.3596C48.3854 29.7901 49.072 30.7812 50.0817 31.2819C50.738 31.6089 51.2075 31.6957 52.0708 31.66C52.4343 31.6446 52.8684 31.5987 53.035 31.5527C53.7671 31.3534 54.4587 30.8681 54.807 30.3112C55.014 29.9842 55.2109 29.4018 55.2614 28.9778L55.2967 28.661H53.6459H52.0001V27.3071V25.9533H55.3624H58.7246L58.6994 27.6239C58.6742 29.4069 58.6439 29.7135 58.3662 30.5513C57.7604 32.3752 56.3064 33.8313 54.4486 34.4597C52.7877 35.0268 50.6724 35.0115 49.0266 34.4239C46.4872 33.5196 44.7606 31.2513 44.3517 28.2983C44.0134 25.8051 44.4476 23.3937 45.5532 21.6464ZM112.026 19.5109C112.869 18.9489 113.763 18.6321 115.131 18.4227C115.217 18.4124 115.737 18.4073 116.292 18.4176C117.383 18.438 117.913 18.5197 118.655 18.7701C120.624 19.4393 121.911 20.9925 122.057 22.8675L122.088 23.2966H120.371H118.66L118.599 22.9901C118.463 22.3412 117.918 21.7741 117.201 21.5442C116.898 21.4472 116.731 21.4318 116.065 21.4318C115.378 21.4318 115.242 21.4472 114.939 21.5493C114.51 21.7026 114.172 21.9325 113.96 22.2135C113.536 22.7806 113.616 23.6798 114.136 24.114C114.379 24.3184 114.904 24.5892 115.308 24.722C115.489 24.7782 116.181 24.957 116.847 25.1154C118.296 25.4526 118.847 25.6263 119.533 25.9533C120.22 26.2802 120.72 26.6379 121.209 27.1539C121.543 27.5064 121.659 27.675 121.861 28.1093C122.143 28.707 122.209 28.942 122.27 29.5857C122.497 32.084 121.043 33.9846 118.428 34.613C117.605 34.8071 117.12 34.8582 116.09 34.8633C115.015 34.8633 114.429 34.7969 113.616 34.5874C112.546 34.3064 111.749 33.8926 111.102 33.2642C110.133 32.3293 109.744 31.4352 109.583 29.7697L109.552 29.4785H111.284H113.016L113.071 29.8156C113.157 30.3112 113.384 30.7455 113.743 31.0776C114.308 31.6089 114.98 31.8286 116.009 31.8286C117.029 31.8286 117.62 31.6447 118.13 31.1848C118.483 30.863 118.66 30.4798 118.66 30.0455C118.66 29.4274 118.327 28.9829 117.605 28.6355C117.14 28.4107 116.812 28.3136 115.288 27.9407C113.864 27.5932 113.026 27.3276 112.476 27.0517C111.077 26.3364 110.35 25.4935 110.083 24.2469C109.961 23.7002 109.997 22.566 110.153 22.0296C110.29 21.5596 110.562 21.0027 110.84 20.6399C111.117 20.2772 111.673 19.7459 112.026 19.5109ZM63.2279 21.5187C62.6927 23.128 61.4962 26.74 60.5673 29.5449L58.871 34.6385L60.7996 34.6283L62.7281 34.6129L63.2329 32.8912L63.7378 31.1644L66.6356 31.1797L69.5334 31.1899L70.0382 32.9168L70.5481 34.6385H72.4564C73.5065 34.6385 74.3647 34.6181 74.3647 34.5976C74.3647 34.5772 73.1733 30.9703 71.7194 26.5919L69.074 18.6219L66.6356 18.6066L64.1921 18.5964L63.2279 21.5187ZM67.8119 25.3402C68.2763 26.9291 68.66 28.2523 68.66 28.2881C68.66 28.3391 68.2359 28.3545 66.6457 28.3545C65.535 28.3545 64.6162 28.3391 64.6061 28.3136C64.5909 28.2829 66.1963 22.7857 66.3024 22.5149C66.3327 22.4383 66.3882 22.4281 66.6507 22.4383L66.9637 22.4536L67.8119 25.3402ZM76.1317 34.6385V26.6174V18.5964H79.1557H82.1747L83.6236 23.7155C84.1595 25.6223 84.6493 27.3493 84.9228 28.3137L84.9237 28.3171L84.924 28.3178L84.9252 28.3221L84.9254 28.3231C85.0549 28.7795 85.1353 29.0629 85.1482 29.1106L85.1502 29.1171C85.229 29.3763 85.2305 29.3812 85.4108 29.366L85.5925 29.3507L87.1121 23.9863L88.6266 18.6219L91.6456 18.6066L94.6595 18.5964V26.6174V34.6385H92.8926H91.1256V28.5282V22.423L90.9439 22.4383L90.7571 22.4536L89.0507 28.2778C88.1066 31.4812 87.3039 34.2247 87.2635 34.3677L87.1828 34.6385H85.4057H83.6236L81.8869 28.5435L80.1452 22.4536L79.9332 22.4383L79.7161 22.423V28.5282V34.6385H77.9239H76.1317ZM97.2342 26.6174V34.6385H102.687H108.139L108.129 33.1671L108.114 31.7008L104.469 31.6855L100.819 31.6753V29.8872V28.099H103.772H106.725V26.6174V25.1358H103.772H100.819V23.3477V21.5595H104.454H108.088V20.078V18.5964H102.661H97.2342V26.6174ZM122.855 18.6628C122.608 18.7752 122.386 19.0715 122.35 19.332C122.32 19.5211 122.335 19.613 122.431 19.8072C122.593 20.1239 122.759 20.2414 123.103 20.2721C123.966 20.3436 124.334 19.2656 123.628 18.7343C123.461 18.6066 123.057 18.5708 122.855 18.6628ZM123.476 18.9233C123.643 19.0153 123.789 19.2605 123.789 19.4393C123.789 19.6539 123.622 19.9094 123.416 20.0064C123.032 20.1955 122.577 19.8889 122.577 19.4393C122.577 19.2503 122.608 19.1839 122.754 19.0306C122.906 18.8825 122.971 18.8518 123.148 18.8518C123.264 18.8569 123.41 18.8825 123.476 18.9233ZM122.88 19.4393C122.88 19.7867 122.89 19.8225 122.981 19.8225C123.057 19.8225 123.082 19.7867 123.082 19.6948C123.082 19.6233 123.108 19.5671 123.133 19.5671C123.163 19.5671 123.214 19.6233 123.244 19.6948C123.279 19.7765 123.34 19.8225 123.421 19.8225C123.537 19.8225 123.537 19.8174 123.466 19.6744C123.395 19.5415 123.395 19.5211 123.461 19.4649C123.663 19.2912 123.466 19.0562 123.118 19.0562H122.88V19.4393ZM123.284 19.3116C123.284 19.378 123.249 19.4138 123.183 19.4138C123.118 19.4138 123.082 19.378 123.082 19.3116C123.082 19.2452 123.118 19.2094 123.183 19.2094C123.249 19.2094 123.284 19.2452 123.284 19.3116Z" fill="white"/>
<path fill-rule="evenodd" clip-rule="evenodd" d="M21.2856 30.0024C21.2957 29.9973 24.8224 29.5561 29.1294 29.0285C33.4365 28.496 36.9986 28.0598 37.0493 28.0547C37.1304 28.0496 37.1354 28.2373 37.1354 31.3009V34.5522L36.9986 34.5218C36.9175 34.5066 33.4922 33.9334 29.3828 33.2487C25.2734 32.5639 21.843 31.9907 21.7619 31.9654L21.6099 31.9299L21.4427 30.9712C21.3515 30.4437 21.2805 30.0075 21.2856 30.0024ZM0.00390153 9.62217C0.0393711 9.59681 4.71121 7.42589 10.3813 4.7934C16.0513 2.16091 20.7282 0.00520706 20.7688 0.000133514C20.8093 0.000133514 24.5083 0.913136 28.9876 2.03917L37.1354 4.08329V14.7908V25.5033L36.9226 25.5338C36.0916 25.6504 30.3861 26.3352 30.3709 26.32C30.3607 26.3098 29.7527 22.881 29.0129 18.7015C28.2782 14.527 27.6651 11.0931 27.6499 11.0779C27.6347 11.0678 27.3408 11.1793 26.9962 11.3315C26.4388 11.5801 26.3679 11.6206 26.378 11.7271C26.53 13.2894 27.6701 26.6345 27.6549 26.6497C27.6245 26.6801 20.8701 27.5069 20.8498 27.4866C20.8397 27.4764 20.2823 24.3418 19.6084 20.5224C18.9396 16.703 18.3771 13.5684 18.3619 13.5532C18.3518 13.543 18.068 13.6495 17.7285 13.8017C17.2784 14.0007 17.1615 14.0524 17.1311 14.1358C17.1205 14.165 17.1205 14.1982 17.1205 14.243C17.1205 14.3394 17.384 17.4283 17.7083 21.1108C18.0275 24.7932 18.2859 27.8112 18.2758 27.8214C18.2555 27.8315 11.8254 28.6177 11.6531 28.6278L11.5315 28.6329L10.4269 22.3687C9.81882 18.9247 9.31718 16.0741 9.31718 16.0386C9.31718 16.0081 9.28678 15.9777 9.25131 15.9777C9.19557 15.9777 8.05548 16.4646 8.00988 16.5103C7.99974 16.5204 8.2379 19.3101 8.53685 22.7187C8.83581 26.1272 9.0689 28.9271 9.0537 28.9373C9.01823 28.9728 5.16218 29.4394 5.13685 29.409C5.12165 29.3988 3.94608 24.9454 2.52224 19.5232C0.475139 11.7221 -0.0518363 9.6526 0.00390153 9.62217Z" fill="white"/>
</svg>
